# xmcd CD database file
#
# Track frame offsets:
#	150
#	18870
#	35979
#	54375
#	72747
#	93087
#	134325
#	151128
#	166422
#	192510
#	217314
#	234984
#	260997
#	287385
#	314736
#
# Disc length: 4437 seconds
#
# Revision: 0
# Processed by: cddbd v1.5.2PL0 Copyright (c) Steve Scherf et al.
# Submitted via: CDex 1.70beta2
#
DISCID=e411530f
DTITLE=Paul Carrack - Live at the London Palladium
DYEAR=2015
DGENRE=blues
TTITLE0=Satisfy my Soul
TTITLE1=Good feelin' about it
TTITLE2=One in a million
TTITLE3=That's all that matters to me
TTITLE4=Just a little lie
TTITLE5=Time waits for no one
TTITLE6=I'm loosing you
TTITLE7=You don't know me
TTITLE8=Make your mind up
TTITLE9=If I should fall behind
TTITLE10=I think it's going to rain today
TTITLE11=The living years
TTITLE12=Over my shoulder
TTITLE13=How long
TTITLE14=Come rain or come shine
EXTD=YEAR: 2015
EXTT0=
EXTT1=
EXTT2=
EXTT3=
EXTT4=
EXTT5=
EXTT6=
EXTT7=
EXTT8=
EXTT9=
EXTT10=
EXTT11=
EXTT12=
EXTT13=
EXTT14=
PLAYORDER=
